<?xml version="1.0" standalone="no"?><!DOCTYPE svg PUBLIC "-//W3C//DTD SVG 1.1//EN" "http://www.w3.org/Graphics/SVG/1.1/DTD/svg11.dtd"><svg class="icon" width="200px" height="200.00px" viewBox="0 0 1024 1024" version="1.1" xmlns="http://www.w3.org/2000/svg"><path d="M967.574 275.324c-7.188-29.842-20.688-53.028-40.216-68.902-31.81-25.936-72.184-39.092-119.962-39.092-59.622 0-131.648 20.748-214.144 61.684-60.574 30.062-105.354 60.53-110.26 63.904a64.01 64.01 0 0 0-27.716 52.714v394.636c0 16.966 6.562 32.934 18.5 44.996 1.25 1.282 31.404 31.688 71.512 62.402 61.278 46.938 112.836 69.748 157.552 69.748a129.26 129.26 0 0 0 17.154-1.124c26.062-3.594 51.218-18.716 74.808-44.936 19.376-21.562 38.562-51.214 58.624-90.622 30.686-60.214 61.092-140.524 83.464-220.3 20.248-72.246 32.748-139.054 36.186-193.176 2.31-36.808 0.53-66.872-5.502-91.932z m-122.242 83.84c-2.812 44.686-14.062 103.87-31.688 166.708-20.188 72.028-47.246 143.744-74.278 196.802-20.624 40.498-35.342 58.622-42.34 65.872-12-3-36.718-14.062-73.59-42.246-15.656-11.968-29.688-24.062-40.188-33.594V380.756c20.438-12.404 51.092-29.936 85.372-45.872 55.684-25.876 103.652-39.56 138.774-39.56 10.594 0 24.688 1.406 35.062 7.498 1.752 5.906 5.03 22.062 2.876 56.342z" fill="#ED5564" /><path d="M455.274 380.756h127.976v331.952h-127.976z" fill="#CCD1D9" /><path d="M583.25 426.692h-127.976c-11.782 0-21.342 9.532-21.342 21.312v170.678c0 11.78 9.562 21.31 21.342 21.31h127.976c11.782 0 21.344-9.532 21.344-21.31v-170.678c0-11.782-9.562-21.312-21.344-21.312z" fill="#E6E9ED" /><path d="M491.708 505.75a21.33 21.33 0 0 1-30.186 0c-8.342-8.312-8.342-21.842 0-30.154a21.33 21.33 0 0 1 30.186 0c8.312 8.312 8.312 21.842 0 30.154zM534.364 548.436c-8.344 8.31-21.844 8.31-30.186 0-8.312-8.344-8.312-21.844 0-30.186 8.342-8.312 21.842-8.312 30.186 0 8.312 8.342 8.312 21.842 0 30.186zM577 591.09c-8.312 8.342-21.842 8.342-30.152 0-8.328-8.344-8.328-21.844 0-30.188 8.31-8.312 21.84-8.312 30.152 0a21.332 21.332 0 0 1 0 30.188zM577 505.75c-8.312 8.344-21.842 8.344-30.152 0-8.328-8.312-8.328-21.842 0-30.154 8.31-8.344 21.84-8.344 30.152 0 8.344 8.312 8.344 21.842 0 30.154zM491.708 591.09a21.334 21.334 0 0 1-30.186 0 21.336 21.336 0 0 1 0-30.188c8.344-8.312 21.842-8.312 30.186 0 8.312 8.344 8.312 21.844 0 30.188z" fill="#CCD1D9" /><path d="M199.286 21.37c-70.684 0-127.994 57.308-127.994 127.994v810.614c0 23.56 19.092 42.684 42.654 42.684 23.592 0 42.686-19.124 42.686-42.684V149.364c0-23.562 19.092-42.654 42.654-42.654 23.562 0 42.654 19.092 42.654 42.654v810.614c0 23.56 19.124 42.684 42.686 42.684 23.56 0 42.654-19.124 42.654-42.684V149.364c0-70.686-57.31-127.994-127.994-127.994z" fill="#FFCE54" /><path d="M199.286 0.028c-82.338 0-149.336 66.996-149.336 149.336v810.614c0 35.308 28.718 63.996 63.998 63.996 35.31 0 63.996-28.688 63.996-63.996V149.364c0-11.782 9.594-21.344 21.342-21.344 11.782 0 21.342 9.562 21.342 21.344v810.614c0 35.308 28.718 63.996 63.998 63.996s63.996-28.688 63.996-63.996V149.364c0-82.34-66.996-149.336-149.336-149.336z m106.652 959.948c0 11.782-9.562 21.342-21.312 21.342-11.782 0-21.342-9.56-21.342-21.342V149.364c0-35.282-28.718-63.998-63.998-63.998S135.29 114.082 135.29 149.364v810.614c0 11.782-9.562 21.342-21.342 21.342-11.75 0-21.312-9.56-21.312-21.342V149.364c0-58.81 47.84-106.652 106.65-106.652s106.652 47.842 106.652 106.652v810.612z" fill="#F6BB42" /><path d="M257.034 591.09l-30.156-30.156 85.308-85.338 30.188 30.154zM257.034 420.442l-30.156-30.186 85.308-85.308 30.188 30.156zM257.034 249.764l-30.156-30.154 85.308-85.34 30.188 30.186zM257.034 761.736l-30.156-30.154 85.308-85.34 30.188 30.186zM257.034 932.414l-30.156-30.186 85.308-85.306 30.188 30.152zM141.54 591.09l-85.34-85.34 30.186-30.154 85.34 85.338zM141.54 420.442L56.2 335.104l30.186-30.156 85.34 85.308zM141.54 249.764L56.2 164.456l30.186-30.186 85.34 85.34zM141.54 761.736L56.2 676.428l30.186-30.186 85.34 85.34zM141.54 932.414l-85.34-85.34 30.186-30.152 85.34 85.306z" fill="#F6BB42" /></svg>