<?xml version="1.0" standalone="no"?><!DOCTYPE svg PUBLIC "-//W3C//DTD SVG 1.1//EN" "http://www.w3.org/Graphics/SVG/1.1/DTD/svg11.dtd"><svg class="icon" width="200px" height="200.00px" viewBox="0 0 1024 1024" version="1.1" xmlns="http://www.w3.org/2000/svg"><path d="M318.412 727.376m-10 0a10 10 0 1 0 20 0 10 10 0 1 0-20 0Z" fill="#FF4B07" /><path d="M335.382 710.406m-10 0a10 10 0 1 0 20 0 10 10 0 1 0-20 0Z" fill="#FF4B07" /><path d="M352.352 693.436m-10 0a10 10 0 1 0 20 0 10 10 0 1 0-20 0Z" fill="#FF4B07" /><path d="M369.324 676.464m-10 0a10 10 0 1 0 20 0 10 10 0 1 0-20 0Z" fill="#FF4B07" /><path d="M386.294 659.496m-10 0a10 10 0 1 0 20 0 10 10 0 1 0-20 0Z" fill="#FF4B07" /><path d="M403.266 642.524m-10 0a10 10 0 1 0 20 0 10 10 0 1 0-20 0Z" fill="#FF4B07" /><path d="M420.236 625.556m-10 0a10 10 0 1 0 20 0 10 10 0 1 0-20 0Z" fill="#FF4B07" /><path d="M437.204 608.584m-10 0a10 10 0 1 0 20 0 10 10 0 1 0-20 0Z" fill="#FF4B07" /><path d="M454.176 591.612m-10 0a10 10 0 1 0 20 0 10 10 0 1 0-20 0Z" fill="#FF4B07" /><path d="M471.146 574.642m-9.998 0a9.998 9.998 0 1 0 19.996 0 9.998 9.998 0 1 0-19.996 0Z" fill="#FF4B07" /><path d="M488.116 557.67m-10 0a10 10 0 1 0 20 0 10 10 0 1 0-20 0Z" fill="#FF4B07" /><path d="M505.088 540.702m-10 0a10 10 0 1 0 20 0 10 10 0 1 0-20 0Z" fill="#FF4B07" /><path d="M522.058 523.73m-9.998 0a9.998 9.998 0 1 0 19.996 0 9.998 9.998 0 1 0-19.996 0Z" fill="#FF4B07" /><path d="M539.028 506.76m-10 0a10 10 0 1 0 20 0 10 10 0 1 0-20 0Z" fill="#FF4B07" /><path d="M556 489.79m-10 0a10 10 0 1 0 20 0 10 10 0 1 0-20 0Z" fill="#FF4B07" /><path d="M572.97 472.818m-9.998 0a9.998 9.998 0 1 0 19.996 0 9.998 9.998 0 1 0-19.996 0Z" fill="#FF4B07" /><path d="M589.94 455.848m-10 0a10 10 0 1 0 20 0 10 10 0 1 0-20 0Z" fill="#FF4B07" /><path d="M606.912 438.876m-10 0a10 10 0 1 0 20 0 10 10 0 1 0-20 0Z" fill="#FF4B07" /><path d="M623.882 421.908m-10 0a10 10 0 1 0 20 0 10 10 0 1 0-20 0Z" fill="#FF4B07" /><path d="M640.852 404.936m-10 0a10 10 0 1 0 20 0 10 10 0 1 0-20 0Z" fill="#FF4B07" /><path d="M657.824 387.966m-10 0a10 10 0 1 0 20 0 10 10 0 1 0-20 0Z" fill="#FF4B07" /><path d="M674.794 370.996m-10 0a10 10 0 1 0 20 0 10 10 0 1 0-20 0Z" fill="#FF4B07" /><path d="M691.764 354.024m-10 0a10 10 0 1 0 20 0 10 10 0 1 0-20 0Z" fill="#FF4B07" /><path d="M708.734 337.054m-10 0a10 10 0 1 0 20 0 10 10 0 1 0-20 0Z" fill="#FF4B07" /><path d="M725.704 320.084m-10 0a10 10 0 1 0 20 0 10 10 0 1 0-20 0Z" fill="#FF4B07" /><path d="M742.676 303.114m-10 0a10 10 0 1 0 20 0 10 10 0 1 0-20 0Z" fill="#FF4B07" /><path d="M759.646 286.142m-9.998 0a9.998 9.998 0 1 0 19.996 0 9.998 9.998 0 1 0-19.996 0Z" fill="#FF4B07" /><path d="M341.038 750.004m-10 0a10 10 0 1 0 20 0 10 10 0 1 0-20 0Z" fill="#FF4B07" /><path d="M358.01 733.034m-10 0a10 10 0 1 0 20 0 10 10 0 1 0-20 0Z" fill="#FF4B07" /><path d="M374.98 716.064m-10 0a10 10 0 1 0 20 0 10 10 0 1 0-20 0Z" fill="#FF4B07" /><path d="M391.95 699.092m-10 0a10 10 0 1 0 20 0 10 10 0 1 0-20 0Z" fill="#FF4B07" /><path d="M408.922 682.122m-10 0a10 10 0 1 0 20 0 10 10 0 1 0-20 0Z" fill="#FF4B07" /><path d="M425.892 665.152m-10 0a10 10 0 1 0 20 0 10 10 0 1 0-20 0Z" fill="#FF4B07" /><path d="M442.862 648.18m-10 0a10 10 0 1 0 20 0 10 10 0 1 0-20 0Z" fill="#FF4B07" /><path d="M459.834 631.21m-10 0a10 10 0 1 0 20 0 10 10 0 1 0-20 0Z" fill="#FF4B07" /><path d="M476.804 614.24m-10 0a10 10 0 1 0 20 0 10 10 0 1 0-20 0Z" fill="#FF4B07" /><path d="M493.774 597.27m-10 0a10 10 0 1 0 20 0 10 10 0 1 0-20 0Z" fill="#FF4B07" /><path d="M510.746 580.298m-10 0a10 10 0 1 0 20 0 10 10 0 1 0-20 0Z" fill="#FF4B07" /><path d="M527.714 563.328m-10 0a10 10 0 1 0 20 0 10 10 0 1 0-20 0Z" fill="#FF4B07" /><path d="M544.684 546.358m-10 0a10 10 0 1 0 20 0 10 10 0 1 0-20 0Z" fill="#FF4B07" /><path d="M561.656 529.386m-10 0a10 10 0 1 0 20 0 10 10 0 1 0-20 0Z" fill="#FF4B07" /><path d="M578.626 512.416m-10 0a10 10 0 1 0 20 0 10 10 0 1 0-20 0Z" fill="#FF4B07" /><path d="M595.598 495.446m-10 0a10 10 0 1 0 20 0 10 10 0 1 0-20 0Z" fill="#FF4B07" /><path d="M612.568 478.476m-10 0a10 10 0 1 0 20 0 10 10 0 1 0-20 0Z" fill="#FF4B07" /><path d="M629.538 461.504m-10 0a10 10 0 1 0 20 0 10 10 0 1 0-20 0Z" fill="#FF4B07" /><path d="M646.51 444.534m-10 0a10 10 0 1 0 20 0 10 10 0 1 0-20 0Z" fill="#FF4B07" /><path d="M663.48 427.564m-9.998 0a9.998 9.998 0 1 0 19.996 0 9.998 9.998 0 1 0-19.996 0Z" fill="#FF4B07" /><path d="M680.45 410.592m-10 0a10 10 0 1 0 20 0 10 10 0 1 0-20 0Z" fill="#FF4B07" /><path d="M697.422 393.622m-10 0a10 10 0 1 0 20 0 10 10 0 1 0-20 0Z" fill="#FF4B07" /><path d="M714.392 376.652m-9.998 0a9.998 9.998 0 1 0 19.996 0 9.998 9.998 0 1 0-19.996 0Z" fill="#FF4B07" /><path d="M731.362 359.682m-10 0a10 10 0 1 0 20 0 10 10 0 1 0-20 0Z" fill="#FF4B07" /><path d="M748.334 342.71m-10 0a10 10 0 1 0 20 0 10 10 0 1 0-20 0Z" fill="#FF4B07" /><path d="M765.302 325.74m-10 0a10 10 0 1 0 20 0 10 10 0 1 0-20 0Z" fill="#FF4B07" /><path d="M782.272 308.77m-10 0a10 10 0 1 0 20 0 10 10 0 1 0-20 0Z" fill="#FF4B07" /><path d="M380.636 755.662m-10 0a10 10 0 1 0 20 0 10 10 0 1 0-20 0Z" fill="#FF4B07" /><path d="M397.606 738.69m-10 0a10 10 0 1 0 20 0 10 10 0 1 0-20 0Z" fill="#FF4B07" /><path d="M414.578 721.722m-10 0a10 10 0 1 0 20 0 10 10 0 1 0-20 0Z" fill="#FF4B07" /><path d="M431.548 704.75m-10 0a10 10 0 1 0 20 0 10 10 0 1 0-20 0Z" fill="#FF4B07" /><path d="M448.518 687.78m-10 0a10 10 0 1 0 20 0 10 10 0 1 0-20 0Z" fill="#FF4B07" /><path d="M465.49 670.81m-10 0a10 10 0 1 0 20 0 10 10 0 1 0-20 0Z" fill="#FF4B07" /><path d="M482.46 653.838m-10 0a10 10 0 1 0 20 0 10 10 0 1 0-20 0Z" fill="#FF4B07" /><path d="M499.432 636.868m-10 0a10 10 0 1 0 20 0 10 10 0 1 0-20 0Z" fill="#FF4B07" /><path d="M516.402 619.896m-10 0a10 10 0 1 0 20 0 10 10 0 1 0-20 0Z" fill="#FF4B07" /><path d="M533.372 602.926m-10 0a10 10 0 1 0 20 0 10 10 0 1 0-20 0Z" fill="#FF4B07" /><path d="M550.344 585.956m-10 0a10 10 0 1 0 20 0 10 10 0 1 0-20 0Z" fill="#FF4B07" /><path d="M567.314 568.986m-9.998 0a9.998 9.998 0 1 0 19.996 0 9.998 9.998 0 1 0-19.996 0Z" fill="#FF4B07" /><path d="M584.284 552.014m-10 0a10 10 0 1 0 20 0 10 10 0 1 0-20 0Z" fill="#FF4B07" /><path d="M601.254 535.044m-10 0a10 10 0 1 0 20 0 10 10 0 1 0-20 0Z" fill="#FF4B07" /><path d="M618.224 518.074m-10 0a10 10 0 1 0 20 0 10 10 0 1 0-20 0Z" fill="#FF4B07" /><path d="M635.194 501.102m-10 0a10 10 0 1 0 20 0 10 10 0 1 0-20 0Z" fill="#FF4B07" /><path d="M652.166 484.132m-10 0a10 10 0 1 0 20 0 10 10 0 1 0-20 0Z" fill="#FF4B07" /><path d="M669.136 467.162m-10 0a10 10 0 1 0 20 0 10 10 0 1 0-20 0Z" fill="#FF4B07" /><path d="M686.106 450.192m-10 0a10 10 0 1 0 20 0 10 10 0 1 0-20 0Z" fill="#FF4B07" /><path d="M703.078 433.22m-10 0a10 10 0 1 0 20 0 10 10 0 1 0-20 0Z" fill="#FF4B07" /><path d="M720.048 416.25m-10 0a10 10 0 1 0 20 0 10 10 0 1 0-20 0Z" fill="#FF4B07" /><path d="M737.018 399.28m-10 0a10 10 0 1 0 20 0 10 10 0 1 0-20 0Z" fill="#FF4B07" /><path d="M753.99 382.308m-10 0a10 10 0 1 0 20 0 10 10 0 1 0-20 0Z" fill="#FF4B07" /><path d="M770.96 365.338m-10 0a10 10 0 1 0 20 0 10 10 0 1 0-20 0Z" fill="#FF4B07" /><path d="M787.932 348.368m-10 0a10 10 0 1 0 20 0 10 10 0 1 0-20 0Z" fill="#FF4B07" /><path d="M420.236 761.318m-10 0a10 10 0 1 0 20 0 10 10 0 1 0-20 0Z" fill="#FF4B07" /><path d="M437.204 744.348m-10 0a10 10 0 1 0 20 0 10 10 0 1 0-20 0Z" fill="#FF4B07" /><path d="M454.176 727.376m-10 0a10 10 0 1 0 20 0 10 10 0 1 0-20 0Z" fill="#FF4B07" /><path d="M471.146 710.406m-10 0a10 10 0 1 0 20 0 10 10 0 1 0-20 0Z" fill="#FF4B07" /><path d="M488.116 693.436m-10 0a10 10 0 1 0 20 0 10 10 0 1 0-20 0Z" fill="#FF4B07" /><path d="M505.088 676.464m-10 0a10 10 0 1 0 20 0 10 10 0 1 0-20 0Z" fill="#FF4B07" /><path d="M522.058 659.496m-10 0a10 10 0 1 0 20 0 10 10 0 1 0-20 0Z" fill="#FF4B07" /><path d="M539.028 642.524m-10 0a10 10 0 1 0 20 0 10 10 0 1 0-20 0Z" fill="#FF4B07" /><path d="M556 625.556m-10 0a10 10 0 1 0 20 0 10 10 0 1 0-20 0Z" fill="#FF4B07" /><path d="M572.97 608.584m-10 0a10 10 0 1 0 20 0 10 10 0 1 0-20 0Z" fill="#FF4B07" /><path d="M589.94 591.612m-10 0a10 10 0 1 0 20 0 10 10 0 1 0-20 0Z" fill="#FF4B07" /><path d="M606.912 574.642m-10 0a10 10 0 1 0 20 0 10 10 0 1 0-20 0Z" fill="#FF4B07" /><path d="M623.882 557.67m-10 0a10 10 0 1 0 20 0 10 10 0 1 0-20 0Z" fill="#FF4B07" /><path d="M640.852 540.702m-10 0a10 10 0 1 0 20 0 10 10 0 1 0-20 0Z" fill="#FF4B07" /><path d="M657.824 523.73m-10 0a10 10 0 1 0 20 0 10 10 0 1 0-20 0Z" fill="#FF4B07" /><path d="M674.794 506.76m-10 0a10 10 0 1 0 20 0 10 10 0 1 0-20 0Z" fill="#FF4B07" /><path d="M691.764 489.79m-10 0a10 10 0 1 0 20 0 10 10 0 1 0-20 0Z" fill="#FF4B07" /><path d="M708.734 472.818m-10 0a10 10 0 1 0 20 0 10 10 0 1 0-20 0Z" fill="#FF4B07" /><path d="M725.704 455.848m-10 0a10 10 0 1 0 20 0 10 10 0 1 0-20 0Z" fill="#FF4B07" /><path d="M742.676 438.876m-10 0a10 10 0 1 0 20 0 10 10 0 1 0-20 0Z" fill="#FF4B07" /><path d="M759.646 421.908m-10 0a10 10 0 1 0 20 0 10 10 0 1 0-20 0Z" fill="#FF4B07" /><path d="M776.616 404.936m-10 0a10 10 0 1 0 20 0 10 10 0 1 0-20 0Z" fill="#FF4B07" /><path d="M544.684 682.122m-10 0a10 10 0 1 0 20 0 10 10 0 1 0-20 0Z" fill="#FF4B07" /><path d="M561.656 665.152m-10 0a10 10 0 1 0 20 0 10 10 0 1 0-20 0Z" fill="#FF4B07" /><path d="M578.626 648.18m-10 0a10 10 0 1 0 20 0 10 10 0 1 0-20 0Z" fill="#FF4B07" /><path d="M595.598 631.21m-10 0a10 10 0 1 0 20 0 10 10 0 1 0-20 0Z" fill="#FF4B07" /><path d="M612.568 614.24m-10 0a10 10 0 1 0 20 0 10 10 0 1 0-20 0Z" fill="#FF4B07" /><path d="M629.538 597.27m-10 0a10 10 0 1 0 20 0 10 10 0 1 0-20 0Z" fill="#FF4B07" /><path d="M646.51 580.298m-10 0a10 10 0 1 0 20 0 10 10 0 1 0-20 0Z" fill="#FF4B07" /><path d="M663.48 563.328m-10 0a10 10 0 1 0 20 0 10 10 0 1 0-20 0Z" fill="#FF4B07" /><path d="M680.45 546.358m-10 0a10 10 0 1 0 20 0 10 10 0 1 0-20 0Z" fill="#FF4B07" /><path d="M697.422 529.386m-10 0a10 10 0 1 0 20 0 10 10 0 1 0-20 0Z" fill="#FF4B07" /><path d="M714.392 512.416m-10 0a10 10 0 1 0 20 0 10 10 0 1 0-20 0Z" fill="#FF4B07" /><path d="M731.362 495.446m-10 0a10 10 0 1 0 20 0 10 10 0 1 0-20 0Z" fill="#FF4B07" /><path d="M748.334 478.476m-10 0a10 10 0 1 0 20 0 10 10 0 1 0-20 0Z" fill="#FF4B07" /><path d="M289 767a29.9 29.9 0 0 1-21.172-8.746c-11.738-11.694-11.776-30.688-0.084-42.426l514-516c11.692-11.742 30.686-11.776 42.426-0.084 11.738 11.694 11.776 30.688 0.082 42.426l-514 516A29.9 29.9 0 0 1 289 767z" fill="#FF4B07" /><path d="M352.14 831.632c-8.312 0-16.4-3.458-22.168-9.786-0.79-0.862-19.322-20.952-127.958-128.678a30.002 30.002 0 0 1-7.74-29.48c31.05-109.604 86.59-203.446 165.076-278.922 107.616-103.486 255.528-168.588 439.632-193.494a29.996 29.996 0 0 1 33.804 33.326c-22.03 182.43-86.086 329.918-190.386 438.368-94.842 98.614-205.676 145.514-281.954 167.492a29.908 29.908 0 0 1-8.306 1.174z m-95.12-168.406c59.326 58.908 89.298 89.254 104.022 104.364 161.73-51.452 353.966-182.458 406.65-510.798-331.004 57.424-460.826 247.574-510.672 406.434z" fill="#4860AE" /></svg>