<svg id="Layer_1" data-name="Layer 1" xmlns="http://www.w3.org/2000/svg" viewBox="0 0 30 30"><defs><style>.cls-1{fill:#1b998b;}.cls-2{fill:#fff;}</style></defs><title>README</title><circle class="cls-1" cx="15" cy="15" r="15"/><path class="cls-2" d="M22.27,11.07a2.69,2.69,0,0,0-.33-1.77,4.19,4.19,0,0,0-2.26-1.76,11.5,11.5,0,0,0-5-.32,20.64,20.64,0,0,0-2.84.53,1.44,1.44,0,0,0-1,.91l-.62,1.73h0a.48.48,0,0,0-.62.29L8.26,14.32a.48.48,0,0,0,.3.62h0l-.77,2.14a1.45,1.45,0,0,0,0,1.1,17.57,17.57,0,0,0,1.05,1.88,6.18,6.18,0,0,0,2.83,2.69l.37.11A2.86,2.86,0,0,0,14,22.47,9.45,9.45,0,0,0,16,21a29,29,0,0,0,3.46-4.06,22.2,22.2,0,0,0,2.25-3.84A7,7,0,0,0,22.27,11.07Zm-10.5,1.06a.48.48,0,1,1,.41.87.48.48,0,1,1-.41-.87Zm-2.06,2a.44.44,0,0,1-.37,0,.49.49,0,0,1-.28-.25.52.52,0,0,1,0-.37.51.51,0,0,1,.25-.27.49.49,0,0,1,.65.23A.48.48,0,0,1,9.71,14.17Zm.65-1.82a.48.48,0,0,1-.37,0,.44.44,0,0,1-.27-.25.47.47,0,0,1,.23-.64.47.47,0,0,1,.64.23A.48.48,0,0,1,10.36,12.35Zm.58,1.24a.48.48,0,0,1-.41-.87.47.47,0,0,1,.64.23A.47.47,0,0,1,10.94,13.59Zm-.06,1a.49.49,0,1,1,.88-.42.53.53,0,0,1,0,.37.57.57,0,0,1-.25.28A.5.5,0,0,1,10.88,14.6ZM19,11.93a18.87,18.87,0,0,1-1.95,3.31A24.82,24.82,0,0,1,14,18.87,6.44,6.44,0,0,1,12.58,20a5.32,5.32,0,0,1-1.25-1.47c-.24-.37-.45-.74-.6-1l.56-1.55h0a.48.48,0,0,0,.61-.29L13.21,12a.48.48,0,0,0-.29-.61h0l.35-1a20.43,20.43,0,0,1,2.17-.33,8,8,0,0,1,3.26.22,1.56,1.56,0,0,1,.69.42A3.67,3.67,0,0,1,19,11.93Z"/></svg>