<svg id="Layer_1" data-name="Layer 1" xmlns="http://www.w3.org/2000/svg" viewBox="0 0 30 30"><defs><style>.cls-1{fill:#2e294e;}.cls-2{fill:#fff;}</style></defs><title>README</title><circle class="cls-1" cx="15" cy="15" r="15"/><path class="cls-2" d="M15.46,9.17a1.34,1.34,0,1,0-1.34-1.34,1.31,1.31,0,0,0,.4.95,1.33,1.33,0,0,0,.94.39m-2.25,1.12a.39.39,0,0,0-.28-.46l-1.12-.27a.37.37,0,0,0-.29,0,.36.36,0,0,0-.17.23l-.93,3.88a.35.35,0,0,0,0,.28.4.4,0,0,0,.24.18l1.11.26a.37.37,0,0,0,.29,0,.36.36,0,0,0,.17-.23Zm6.39,3.43a.63.63,0,0,0-.33-.55l.07-2.45v0a.3.3,0,0,0-.34-.25.32.32,0,0,0-.26.31L18.67,13,17,12.62l-.51-2.1a1.39,1.39,0,0,0-1.37-1.14,1.44,1.44,0,0,0-1.36,1.12L10.89,22.37a1.23,1.23,0,0,0,0,.19.94.94,0,0,0,1.84.27l1.62-6.68,1.53,6.64a.94.94,0,0,0,1.85-.23,1.23,1.23,0,0,0,0-.2l-2.11-8.83.18-.78.13.61a.63.63,0,0,0,.49.44l2.25.51-.23,8.81v0a.3.3,0,0,0,.35.26.32.32,0,0,0,.26-.31l.23-8.8a.62.62,0,0,0,.36-.57Zm0,0"/></svg>