<?xml version="1.0" standalone="no"?><!DOCTYPE svg PUBLIC "-//W3C//DTD SVG 1.1//EN" "http://www.w3.org/Graphics/SVG/1.1/DTD/svg11.dtd"><svg class="icon" width="200px" height="200.00px" viewBox="0 0 1024 1024" version="1.1" xmlns="http://www.w3.org/2000/svg"><path fill="#333333" d="M965.40416 342.76608c-19.50976-52.24704-47.744-100.41472-83.92064-143.16288-18.26688-21.5872-50.57536-24.27392-72.15872-6.0096-21.58464 18.26688-24.2752 50.5728-6.00832 72.15872C861.4336 334.42816 893.44 421.88032 893.44 512c0 210.32576-171.11424 381.44-381.44 381.44-210.32704 0-381.44-171.11424-381.44-381.44 0-210.32704 171.11296-381.44 381.44-381.44 60.48896 0 118.30784 13.72672 171.85152 40.8 25.2288 12.75648 56.03328 2.64704 68.7936-22.58816 12.76032-25.23392 2.64576-56.03456-22.58816-68.7936C662.05312 45.5936 588.68992 28.16 512 28.16c-65.29536 0-128.66432 12.8-188.34688 38.04416-57.62176 24.37248-109.36064 59.2512-153.7792 103.66976-44.41856 44.41856-79.29856 96.15744-103.66976 153.77792C40.96 383.3344 28.16 446.70464 28.16 512c0 65.29536 12.8 128.6656 38.04416 188.34688 24.37248 57.62176 59.2512 109.36064 103.66976 153.7792s96.15744 79.29856 153.7792 103.66976C383.33568 983.04 446.70464 995.84 512 995.84c65.29536 0 128.6656-12.8 188.34816-38.04416 57.62176-24.3712 109.36064-59.2512 153.77792-103.66976 44.41856-44.41856 79.29856-96.15744 103.66976-153.7792C983.04 640.6656 995.84 577.29536 995.84 512 995.84 453.79328 985.6 396.85504 965.40416 342.76608zM555.56736 301.14432c35.8016 0 64.8384-29.37728 64.8384-65.58976 0-36.2112-29.03808-65.59232-64.8384-65.59232-35.80416 0-64.84224 29.38112-64.84224 65.59232C490.72512 271.76704 519.7632 301.14432 555.56736 301.14432zM411.67488 500.51328c8.40448-42.97472 23.3664-131.31648 32.2496-172.0384 3.7568-17.21856-9.15328-21.86368-20.22528-21.86368l-84.99328 0c-22.47936 0-27.33184 13.664-27.33184 13.664s-24.59648 125.71776-36.00512 180.16896c-3.61856 17.28768 4.44032 24.80512 21.93152 24.80512l85.81632 0C397.53216 525.25056 408.05504 518.96576 411.67488 500.51328zM607.42656 458.56512c19.81184-5.87776 113.8944-42.6368 113.8944-42.6368l0-54.65856-113.96224 31.70304c0 0-24.80384-25.14176-38.87744-39.35744-14.00448-14.21184-19.40352-26.23616-38.87616-26.23616l-25.89568 0c-22.68544 0-33.9584 10.31936-38.87744 39.35744-6.49088 38.05568-85.13152 459.13984-85.13152 459.13984l81.98784 0 40.99328-204.97408 117.72544 204.97408 77.824 0L530.01344 525.25056l25.55392-106.04032C555.56736 419.21024 594.58304 462.39104 607.42656 458.56512z" /></svg>