<svg id="Layer_1" data-name="Layer 1" xmlns="http://www.w3.org/2000/svg" viewBox="0 0 30 30"><defs><style>.cls-1{fill:#f46036;}.cls-2{fill:#fff;}</style></defs><title>README</title><circle class="cls-1" cx="15" cy="15" r="15"/><path class="cls-2" d="M10.07,22.29a3.58,3.58,0,0,1-1.74-6.7.85.85,0,0,1,.83,1.49,1.87,1.87,0,1,0,2.2,3,.84.84,0,0,1,1.2,0,.85.85,0,0,1,0,1.2,3.58,3.58,0,0,1-2.46,1Zm9.14,0a4.29,4.29,0,0,1-3.75-6.37.84.84,0,0,1,1.15-.33.85.85,0,0,1,.33,1.16,2.59,2.59,0,1,0,2.89-1.27.85.85,0,0,1-.63-1,.86.86,0,0,1,1-.63,4.29,4.29,0,0,1-1,8.46Zm0,0"/><path class="cls-2" d="M19.21,18.79a.87.87,0,0,1-.78-.51L14.49,9.42H12.44a.86.86,0,0,1,0-1.71H15a.85.85,0,0,1,.78.51L20,17.59a.86.86,0,0,1-.43,1.13.84.84,0,0,1-.35.07Zm-7.27,0a.85.85,0,0,1-.77-.49L8.63,12.9a.85.85,0,0,1,1.54-.72l2.54,5.4a.84.84,0,0,1-.41,1.13.9.9,0,0,1-.36.08Zm0,0"/><path class="cls-2" d="M10.93,13.39H8.23a.85.85,0,1,1,0-1.7h2.7a.85.85,0,1,1,0,1.7Zm.12,3.17A.85.85,0,0,1,10.62,15l5.18-3a.86.86,0,0,1,1.17.3.84.84,0,0,1-.31,1.16l-5.18,3a.81.81,0,0,1-.43.11Zm0,0"/></svg>