<svg id="Layer_1" data-name="Layer 1" xmlns="http://www.w3.org/2000/svg" viewBox="0 0 30 30"><defs><style>.cls-1{fill:#c5d86d;}.cls-2{fill:#fff;stroke:#fff;stroke-miterlimit:10;stroke-width:0.75px;}</style></defs><title>README</title><circle class="cls-1" cx="15" cy="15" r="15"/><path class="cls-2" d="M9,21.69,22.67,8A.5.5,0,0,0,22,7.33L8.31,21a.5.5,0,1,0,.71.71Zm0,0"/><path class="cls-2" d="M9.29,22.67a1.2,1.2,0,0,0,.85.33,1.56,1.56,0,0,0,.69-.17A26.06,26.06,0,0,0,19.49,16,18.3,18.3,0,0,0,23,8.46a1.53,1.53,0,0,0,0-.3,1.14,1.14,0,0,0-.33-.82h0A1.14,1.14,0,0,0,21.84,7a1.53,1.53,0,0,0-.3,0A18.3,18.3,0,0,0,14,10.51a26.06,26.06,0,0,0-6.84,8.66,1.56,1.56,0,0,0-.17.69,1.18,1.18,0,0,0,.33.85Zm-1.23-3a25,25,0,0,1,6.57-8.34A17.3,17.3,0,0,1,21.75,8h.09L22,8l0,0,0,.11v.09a17.3,17.3,0,0,1-3.29,7.12,25.12,25.12,0,0,1-8.34,6.57l-.22.06L10,22,8,20l0-.14Zm0,0"/></svg>