<svg id="Layer_1" data-name="Layer 1" xmlns="http://www.w3.org/2000/svg" viewBox="0 0 30 30"><defs><style>.cls-1{fill:#e71d36;}.cls-2{fill:#fff;}</style></defs><title>README</title><circle class="cls-1" cx="15" cy="15" r="15"/><path class="cls-2" d="M23,20.62a3.6,3.6,0,0,1-1,.13c-.68.05-1.19-.37-1.68-.37a15.43,15.43,0,0,0-1.78.37,7.2,7.2,0,0,1-1.76-.34,7.3,7.3,0,0,0-1.79.34c-.67.06-1.13-.33-1.75-.37a15.8,15.8,0,0,0-1.71.37,6.63,6.63,0,0,1-1.86-.34c-.69,0-1.18.33-1.79.34-.29,0-.78,0-.91-.18v.74a2.13,2.13,0,0,0,.93.16,7.74,7.74,0,0,0,1.77-.36,9.2,9.2,0,0,1,1.85.36c.72,0,1.42-.38,1.72-.35.62-.05,1.14.41,1.73.41a9.14,9.14,0,0,0,1.82-.42c.63,0,1.1.37,1.74.39a9.38,9.38,0,0,0,1.79-.39c.46,0,1.15.36,1.69.36a3.92,3.92,0,0,0,1-.13v-.72Zm0,1.3a3.25,3.25,0,0,1-1,.14c-.68.05-1.19-.37-1.68-.37a15.43,15.43,0,0,0-1.78.37,7.71,7.71,0,0,1-1.76-.34,7.3,7.3,0,0,0-1.79.34c-.67.05-1.13-.33-1.75-.37a13.73,13.73,0,0,0-1.71.37,7,7,0,0,1-1.86-.34c-.69,0-1.18.33-1.79.34A1.81,1.81,0,0,1,7,21.87v.75a2.29,2.29,0,0,0,.93.16,7.74,7.74,0,0,0,1.77-.36,9.2,9.2,0,0,1,1.85.36c.72,0,1.42-.38,1.72-.35.62-.06,1.14.41,1.73.41a9.06,9.06,0,0,0,1.82-.43c.63,0,1.1.38,1.74.39a8.06,8.06,0,0,0,1.79-.39c.46,0,1.15.37,1.69.37a4.47,4.47,0,0,0,1-.13v-.73Zm0,0"/><path class="cls-2" d="M19.51,12.61a.83.83,0,1,0,.82-.82.83.83,0,0,0-.82.82Zm0,0"/><path class="cls-2" d="M13.12,19a.13.13,0,0,0,.2-.06c1.26-3.07,2.53-7.13,3.81-11.54a.17.17,0,0,0-.19-.23c-3.27.62-6.15,3.32-8.68,7.89a.35.35,0,0,0,.1.45Zm3.38-5.77,1.72.49h2.31a.71.71,0,0,1,.56.9l-.76,3c-.13.49-.39.68-.64.66H16.93l-1.8,1.82c-.42.33-1.09-.28-.72-.68l2.06-2h2a.21.21,0,0,0,.19-.15l.71-2.57a.11.11,0,0,0-.1-.14l-1.12-.07-1.88-.51c-.4-.09-.17-.75.22-.67Zm0,0"/></svg>